<svg version="1.1" xmlns="http://www.w3.org/2000/svg" xmlns:xlink="http://www.w3.org/1999/xlink" viewBox="0 0 172 172"><g transform=""><g fill="none" fill-rule="nonzero" stroke="none" stroke-width="1" stroke-linecap="butt" stroke-linejoin="miter" stroke-miterlimit="10" stroke-dasharray="" stroke-dashoffset="0" font-family="none" font-weight="none" font-size="none" text-anchor="none" style="mix-blend-mode: normal"><path d="M0,172v-172h172v172z" fill="#ffffff"></path><g fill="#000000"><path d="M86,14.33333c-39.49552,0 -71.66667,32.17115 -71.66667,71.66667c0,39.49552 32.17115,71.66667 71.66667,71.66667c39.49552,0 71.66667,-32.17115 71.66667,-71.66667c0,-39.49552 -32.17115,-71.66667 -71.66667,-71.66667zM86,28.66667c31.74921,0 57.33333,25.58412 57.33333,57.33333c0,31.74921 -25.58412,57.33333 -57.33333,57.33333c-31.74921,0 -57.33333,-25.58412 -57.33333,-57.33333c0,-31.74921 25.58412,-57.33333 57.33333,-57.33333zM64.5,57.33333v57.33333h17.52474c3.88434,0 7.44102,-0.66214 10.66602,-1.97364c3.225,-1.3115 6.00645,-3.17012 8.32845,-5.57096c2.322,-2.40083 4.12733,-5.27556 5.40299,-8.6224c1.2685,-3.34683 1.90365,-7.07776 1.90365,-11.16992v-2.60351c0,-4.09217 -0.64881,-7.80876 -1.93164,-11.16992c-1.28283,-3.36117 -3.0745,-6.24956 -5.375,-8.65039c-2.3005,-2.40083 -5.0618,-4.25913 -8.27246,-5.58496c-3.21067,-1.32583 -6.74036,-1.98763 -10.59602,-1.98763zM76.31381,66.90755h5.83691c4.644,0 8.16686,1.50433 10.58203,4.50716c2.41517,3.01 3.62532,7.41504 3.62532,13.24154v2.6875c0.00001,5.719 -1.22348,10.11071 -3.66731,13.19955c-2.44383,3.08883 -5.99335,4.63314 -10.66602,4.63314h-5.71093z"></path></g></g></g></svg>